{
	"asset":{
		"version":"2.0",
		"generator":"Created using the official Cinema 4D glTF Exporter 1.000x284978"
	},
	"scenes":[{
		"nodes":[0]
	}],
	"nodes":[{
		"name":"挤压.2",
		"scale":[1.0,
		1.0,
		1.0],
		"translation":[0.0,
		0.0,
		-4.566349983215332],
		"rotation":[-0.7071067690849304,
		0.0,
		0.0,
		-0.7071067690849304],
		"children":[1,
		2]
	},
	{
		"name":"挤压.2-材质.1",
		"mesh":0
	},
	{
		"name":"挤压.2-材质",
		"mesh":1
	}],
	"meshes":[{
		"name":"挤压.2-材质.1",
		"primitives":[{
			"attributes":{
				"POSITION":1,
				"NORMAL":2,
				"TEXCOORD_0":3
			},
			"indices":0,
			"material":0
		}]
	},
	{
		"name":"挤压.2-材质",
		"primitives":[{
			"attributes":{
				"POSITION":5,
				"NORMAL":6,
				"TEXCOORD_0":7
			},
			"indices":4,
			"material":1
		}]
	}],
	"accessors":[{
		"bufferView":0,
		"type":"SCALAR",
		"componentType":5123,
		"max":[1598],
		"count":7620,
		"byteOffset":0,
		"min":[0]
	},
	{
		"bufferView":1,
		"type":"VEC3",
		"componentType":5126,
		"max":[19.03997230529785,
		12.826165199279786,
		6.973649978637695],
		"count":1599,
		"byteOffset":0,
		"min":[-19.039974212646486,
		-12.57817554473877,
		-4.186349868774414]
	},
	{
		"bufferView":1,
		"type":"VEC3",
		"componentType":5126,
		"max":[0.9998458027839661,
		0.9998480677604675,
		1.0],
		"count":1599,
		"byteOffset":12,
		"min":[-0.9998453259468079,
		-1.0,
		-1.0]
	},
	{
		"bufferView":1,
		"type":"VEC2",
		"componentType":5126,
		"max":[1.0,
		1.0],
		"count":1599,
		"byteOffset":24,
		"min":[0.0,
		0.0]
	},
	{
		"bufferView":2,
		"type":"SCALAR",
		"componentType":5123,
		"max":[1623],
		"count":7680,
		"byteOffset":0,
		"min":[0]
	},
	{
		"bufferView":3,
		"type":"VEC3",
		"componentType":5126,
		"max":[19.99997329711914,
		13.787479400634766,
		5.526350021362305],
		"count":1624,
		"byteOffset":0,
		"min":[-19.999975204467775,
		-13.539848327636719,
		-2.7936501502990724]
	},
	{
		"bufferView":3,
		"type":"VEC3",
		"componentType":5126,
		"max":[1.0,
		1.0,
		0.9945119619369507],
		"count":1624,
		"byteOffset":12,
		"min":[-1.0,
		-1.0,
		-0.9945122003555298]
	},
	{
		"bufferView":3,
		"type":"VEC2",
		"componentType":5126,
		"max":[1.0,
		1.0],
		"count":1624,
		"byteOffset":24,
		"min":[0.0,
		0.0]
	}],
	"bufferViews":[{
		"buffer":0,
		"byteOffset":0,
		"byteLength":15240,
		"target":34963
	},
	{
		"buffer":0,
		"byteOffset":15240,
		"byteLength":51168,
		"target":34962,
		"byteStride":32
	},
	{
		"buffer":1,
		"byteOffset":0,
		"byteLength":15360,
		"target":34963
	},
	{
		"buffer":1,
		"byteOffset":15360,
		"byteLength":51968,
		"target":34962,
		"byteStride":32
	}],
	"buffers":[{
		"uri":"data:application/octet-stream;base64,",
		"byteLength":66408
	},
	{
		"uri":"data:application/octet-stream;base64,",
		"byteLength":67328
	}],
	"materials":[{
		"pbrMetallicRoughness":{
			"baseColorFactor":[0.0,
			0.5166666666666666,
			1.0,
			0.85],
			"metallicFactor":1.0,
			"roughnessFactor":1.0
		},
		"emissiveFactor":[0.0,
		0.4833333333333334,
		1.0],
		"alphaMode":"BLEND",
		"doubleSided":false,
		"name":"材质.1"
	},
	{
		"pbrMetallicRoughness":{
			"baseColorFactor":[1.0,
			1.0,
			1.0,
			1.0],
			"metallicFactor":1.0,
			"roughnessFactor":1.0
		},
		"emissiveFactor":[1.0,
		1.0,
		1.0],
		"alphaMode":"OPAQUE",
		"doubleSided":false,
		"name":"材质"
	}]
}