{
	"buffers":[{
		"uri":"data:application/octet-stream;base64,",
		"byteLength":132784
	},
	{
		"uri":"data:application/octet-stream;base64,",
		"byteLength":134656
	}],
	"asset":{
		"version":"2.0",
		"generator":"Created using the official Cinema 4D glTF Exporter 1.000x284978"
	},
	"scenes":[{
		"nodes":[0]
	}],
	"nodes":[{
		"name":"",
		"translation":[0.0,
		-4.592425233973236e-16,
		-12.066349983215332],
		"rotation":[0.0,
		0.0,
		0.0,
		-1.0],
		"scale":[1.0,
		1.0,
		1.0],
		"children":[1,
		2]
	},
	{
		"name":"-.1",
		"mesh":0
	},
	{
		"name":"-",
		"mesh":1
	}],
	"meshes":[{
		"name":"-.1",
		"primitives":[{
			"attributes":{
				"POSITION":1,
				"NORMAL":2,
				"TEXCOORD_0":3
			},
			"indices":0,
			"material":0
		}]
	},
	{
		"name":"-",
		"primitives":[{
			"attributes":{
				"POSITION":5,
				"NORMAL":6,
				"TEXCOORD_0":7
			},
			"indices":4,
			"material":1
		}]
	}],
	"accessors":[{
		"bufferView":0,
		"componentType":5123,
		"type":"SCALAR",
		"count":15240,
		"byteOffset":0,
		"min":[0],
		"max":[3196]
	},
	{
		"bufferView":1,
		"componentType":5126,
		"type":"VEC3",
		"count":3197,
		"byteOffset":0,
		"min":[-7.615990161895752,
		-2.7894601821899416,
		-12.531270027160645],
		"max":[7.6159892082214359,
		1.6745399236679078,
		12.630465507507325]
	},
	{
		"bufferView":1,
		"componentType":5126,
		"type":"VEC3",
		"count":3197,
		"byteOffset":12,
		"min":[-0.9998453259468079,
		-1.0,
		-1.0],
		"max":[0.9998458027839661,
		1.0,
		0.9998480677604675]
	},
	{
		"bufferView":1,
		"componentType":5126,
		"type":"VEC2",
		"count":3197,
		"byteOffset":24,
		"min":[0.0,
		0.0],
		"max":[1.0,
		1.0]
	},
	{
		"bufferView":2,
		"componentType":5123,
		"type":"SCALAR",
		"count":15360,
		"byteOffset":0,
		"min":[0],
		"max":[3247]
	},
	{
		"bufferView":3,
		"componentType":5126,
		"type":"VEC3",
		"count":3248,
		"byteOffset":0,
		"min":[-7.999989986419678,
		-2.2105398178100588,
		-12.915939331054688],
		"max":[7.9999895095825199,
		1.1174601316452027,
		13.014991760253907]
	},
	{
		"bufferView":3,
		"componentType":5126,
		"type":"VEC3",
		"count":3248,
		"byteOffset":12,
		"min":[-1.0,
		-0.9945119619369507,
		-1.0],
		"max":[1.0,
		0.9945122003555298,
		1.0]
	},
	{
		"bufferView":3,
		"componentType":5126,
		"type":"VEC2",
		"count":3248,
		"byteOffset":24,
		"min":[0.0,
		0.0],
		"max":[1.0,
		1.0]
	}],
	"bufferViews":[{
		"buffer":0,
		"byteOffset":0,
		"byteLength":30480,
		"target":34963
	},
	{
		"buffer":0,
		"byteOffset":30480,
		"byteLength":102304,
		"target":34962,
		"byteStride":32
	},
	{
		"buffer":1,
		"byteOffset":0,
		"byteLength":30720,
		"target":34963
	},
	{
		"buffer":1,
		"byteOffset":30720,
		"byteLength":103936,
		"target":34962,
		"byteStride":32
	}],
	"materials":[{
		"pbrMetallicRoughness":{
			"baseColorFactor":[0.0,
			0.5166666666666666,
			1.0,
			0.85],
			"metallicFactor":1.0,
			"roughnessFactor":1.0
		},
		"emissiveFactor":[0.0,
		0.4833333333333334,
		1.0],
		"alphaMode":"BLEND",
		"doubleSided":false,
		"name":".1"
	},
	{
		"pbrMetallicRoughness":{
			"baseColorFactor":[1.0,
			1.0,
			1.0,
			1.0],
			"metallicFactor":1.0,
			"roughnessFactor":1.0
		},
		"emissiveFactor":[1.0,
		1.0,
		1.0],
		"alphaMode":"OPAQUE",
		"doubleSided":false,
		"name":""
	}]
}